# xmcd CD database file
#
# Track frame offsets:
#	150
#	5498
#	15486
#	17804
#	28272
#	42883
#	56884
#	59122
#	74312
#	95135
#	96919
#	110424
#	112663
#	132031
#	133593
#	137640
#	140520
#	153672
#	154788
#	166976
#	170985
#	172952
#	188594
#	190300
#	199387
#	215885
#	220938
#
# Disc length: 3250 seconds
#
# Revision: 1
# Processed by: cddbd v1.5.2PL0 Copyright (c) Steve Scherf et al.
# Submitted via: CDex 1.51
#
DISCID=960cb01b
DTITLE=Chloe and Jason Roweth - The Riderless Horse
DYEAR=2005
DGENRE=Cabaret
TTITLE0=Anzac Cove
TTITLE1=Pack Up Your Troubles/Charlie Chaplin/It's a Long Way to Riverina
TTITLE2=For England
TTITLE3=The Route March
TTITLE4=The Banks of the Murray
TTITLE5=Boys of the Dardanelles
TTITLE6=Friday 14th May
TTITLE7=Sing Me to Sleep
TTITLE8=Hic Jacet
TTITLE9=War!
TTITLE10=The Army Song
TTITLE11=The Jester in the Trench
TTITLE12=Suvla Bay/Home Sweet Home
TTITLE13=Evacuation of Gallipoli
TTITLE14=Home Sweet Home (Reprise)
TTITLE15=Ragtime Army
TTITLE16=Hiding in the Ammunition Van/Mademoiselle, She Bought a Cow/To Save Democracy/ Fighting the Kaiser
TTITLE17=To Arms!
TTITLE18=Dinki Di
TTITLE19=Take Me Back to Dear Old Aussie
TTITLE20=Think This of Me
TTITLE21=Scots of the Riverina
TTITLE22=Billy Hughes
TTITLE23=Hanging on the Old Barbed Wire
TTITLE24=The Sleeper Cutter's Camp
TTITLE25=Just as the Sun Went Down
TTITLE26=The Riderless Horse
EXTD=An Australian impression of World War\nSongs and poems from the trenches and the home front, 1914 - 1918. YEAR: 2005
EXTT0=
EXTT1=
EXTT2=
EXTT3=
EXTT4=
EXTT5=
EXTT6=
EXTT7=
EXTT8=
EXTT9=
EXTT10=
EXTT11=
EXTT12=
EXTT13=
EXTT14=
EXTT15=
EXTT16=
EXTT17=
EXTT18=
EXTT19=
EXTT20=
EXTT21=
EXTT22=
EXTT23=
EXTT24=
EXTT25=
EXTT26=
PLAYORDER=
